<?xml version="1.0" standalone="no"?>
<svg xmlns:xlink="http://www.w3.org/1999/xlink" id="wave" style="transform:rotate(0deg); transition: 0.3s" viewBox="0 0 1440 100" version="1.1" xmlns="http://www.w3.org/2000/svg"><defs><linearGradient id="sw-gradient-0" x1="0" x2="0" y1="1" y2="0"><stop stop-color="rgba(133, 108, 79, 1)" offset="0%"/><stop stop-color="rgba(200.677, 152.651, 96.94, 1)" offset="100%"/></linearGradient></defs><path style="transform:translate(0, 0px); opacity:1" fill="url(#sw-gradient-0)" d="M0,10L20,15C40,20,80,30,120,28.3C160,27,200,13,240,15C280,17,320,33,360,41.7C400,50,440,50,480,48.3C520,47,560,43,600,46.7C640,50,680,60,720,60C760,60,800,50,840,43.3C880,37,920,33,960,35C1000,37,1040,43,1080,43.3C1120,43,1160,37,1200,30C1240,23,1280,17,1320,16.7C1360,17,1400,23,1440,25C1480,27,1520,23,1560,23.3C1600,23,1640,27,1680,30C1720,33,1760,37,1800,33.3C1840,30,1880,20,1920,20C1960,20,2000,30,2040,31.7C2080,33,2120,27,2160,21.7C2200,17,2240,13,2280,20C2320,27,2360,43,2400,55C2440,67,2480,73,2520,68.3C2560,63,2600,47,2640,43.3C2680,40,2720,50,2760,55C2800,60,2840,60,2860,60L2880,60L2880,100L2860,100C2840,100,2800,100,2760,100C2720,100,2680,100,2640,100C2600,100,2560,100,2520,100C2480,100,2440,100,2400,100C2360,100,2320,100,2280,100C2240,100,2200,100,2160,100C2120,100,2080,100,2040,100C2000,100,1960,100,1920,100C1880,100,1840,100,1800,100C1760,100,1720,100,1680,100C1640,100,1600,100,1560,100C1520,100,1480,100,1440,100C1400,100,1360,100,1320,100C1280,100,1240,100,1200,100C1160,100,1120,100,1080,100C1040,100,1000,100,960,100C920,100,880,100,840,100C800,100,760,100,720,100C680,100,640,100,600,100C560,100,520,100,480,100C440,100,400,100,360,100C320,100,280,100,240,100C200,100,160,100,120,100C80,100,40,100,20,100L0,100Z"/></svg>